HIERARCHY
ROOT Hips
{
	OFFSET -0.001795 -0.223333 0.028219
	CHANNELS 6 Xposition Yposition Zposition Zrotation Yrotation Xrotation 
	JOINT LeftUpLeg
	{
		OFFSET 0.069520 -0.091406 -0.006815
		CHANNELS 3 Zrotation Yrotation Xrotation
		JOINT LeftLeg
		{
			OFFSET 0.034277 -0.375199 -0.004496
			CHANNELS 3 Zrotation Yrotation Xrotation
			JOINT LeftFoot
			{
				OFFSET -0.013596 -0.397961 -0.043693
				CHANNELS 3 Zrotation Yrotation Xrotation
				JOINT LeftToe
				{
					OFFSET 0.026358 -0.055791 0.119288
					CHANNELS 3 Zrotation Yrotation Xrotation
					End Site
					{
						OFFSET 0.000000 0.000000 0.000000
					}
				}
			}
		}
	}
	JOINT RightUpLeg
	{
		OFFSET -0.067670 -0.090522 -0.004320
		CHANNELS 3 Zrotation Yrotation Xrotation
		JOINT RightLeg
		{
			OFFSET -0.038290 -0.382569 -0.008850
			CHANNELS 3 Zrotation Yrotation Xrotation
			JOINT RightFoot
			{
				OFFSET 0.015774 -0.398415 -0.042312
				CHANNELS 3 Zrotation Yrotation Xrotation
				JOINT RightToe
				{
					OFFSET -0.025372 -0.048144 0.123348
					CHANNELS 3 Zrotation Yrotation Xrotation
					End Site
					{
						OFFSET 0.000000 0.000000 0.000000
					}
				}
			}
		}
	}
	JOINT Spine
	{
		OFFSET -0.002533 0.108963 -0.026696
		CHANNELS 3 Zrotation Yrotation Xrotation
		JOINT Spine1
		{
			OFFSET 0.005487 0.135180 0.001092
			CHANNELS 3 Zrotation Yrotation Xrotation
			JOINT Spine2
			{
				OFFSET 0.001457 0.052922 0.025425
				CHANNELS 3 Zrotation Yrotation Xrotation
				JOINT Neck
				{
					OFFSET -0.002778 0.213870 -0.042857
					CHANNELS 3 Zrotation Yrotation Xrotation
					JOINT Head
					{
						OFFSET 0.005152 0.064970 0.051349
						CHANNELS 3 Zrotation Yrotation Xrotation
						End Site
						{
							OFFSET 0.000000 0.000000 0.000000
						}
					}
				}
				JOINT LeftShoulder
				{
					OFFSET 0.078845 0.121749 -0.034090
					CHANNELS 3 Zrotation Yrotation Xrotation
					JOINT LeftArm
					{
						OFFSET 0.090977 0.030469 -0.008868
						CHANNELS 3 Zrotation Yrotation Xrotation
						JOINT LeftForeArm
						{
							OFFSET 0.259612 -0.012772 -0.027456
							CHANNELS 3 Zrotation Yrotation Xrotation
							JOINT LeftHand
							{
								OFFSET 0.249234 0.008986 -0.001171
								CHANNELS 3 Zrotation Yrotation Xrotation
								End Site
								{
									OFFSET 0.000000 0.000000 0.000000
								}
							}
						}
					}
				}
				JOINT RightShoulder
				{
					OFFSET -0.081759 0.118833 -0.038615
					CHANNELS 3 Zrotation Yrotation Xrotation
					JOINT RightArm
					{
						OFFSET -0.096012 0.032551 -0.009143
						CHANNELS 3 Zrotation Yrotation Xrotation
						JOINT RightForeArm
						{
							OFFSET -0.253742 -0.013329 -0.021401
							CHANNELS 3 Zrotation Yrotation Xrotation
							JOINT RightHand
							{
								OFFSET -0.255298 0.007772 -0.005559
								CHANNELS 3 Zrotation Yrotation Xrotation
								End Site
								{
									OFFSET 0.000000 0.000000 0.000000
								}
							}
						}
					}
				}
			}
		}
	}
}
MOTION
Frames: 16
Frame Time: 0.050000
0.000000 0.938698 0.000000 -3.155997 -2.684729 16.146877 13.578227 0.046455 -17.371737 -7.046280 0.768172 -0.880626 -0.470991 9.124919 36.091112 0.000000 0.000000 0.000000 -5.492252 1.500663 -19.817173 4.687060 -0.436201 3.692063 -18.780380 -34.937092 22.778120 0.000000 0.000000 0.000000 -3.319570 0.010280 23.127996 4.674336 -0.910813 -16.927567 -0.545677 1.251839 25.248583 -2.221431 2.664168 -22.903086 0.000000 0.000000 0.000000 -27.455460 -20.047593 11.739439 -39.756636 -37.770364 5.260380 10.125686 -19.769452 -0.725276 0.000000 0.000000 0.000000 15.271733 27.202098 13.347827 43.957505 40.178466 8.354187 -11.402367 16.611664 -0.794472 0.000000 0.000000 0.000000 
-0.000189 0.940734 0.003450 -3.156596 -3.629337 14.823234 13.090772 -0.019274 -15.061806 -6.497150 0.707171 -1.590850 -0.278238 9.243718 36.432160 0.000000 0.000000 0.000000 -5.931970 1.331279 -17.446978 5.685121 -0.536945 2.131437 -18.235688 -34.291083 22.395230 0.000000 0.000000 0.000000 -3.002625 -0.027954 19.551415 5.067426 -1.155173 -15.515920 -0.910760 1.456976 25.771081 -2.938156 3.111890 -25.107948 0.000000 0.000000 0.000000 -30.101305 -17.162855 10.202366 -38.709394 -34.387491 3.817814 6.670304 -23.686299 -0.197982 0.000000 0.000000 0.000000 15.370049 25.451274 12.283693 47.819230 38.867146 8.888666 -12.363648 18.913013 -1.032701 0.000000 0.000000 0.000000 
-0.000576 0.941285 0.008337 -2.416559 -3.434110 12.543525 12.292037 -0.126742 -12.546839 -6.675297 0.732509 -1.326903 -0.653146 8.912365 36.324838 0.000000 0.000000 0.000000 -6.357348 1.133885 -15.321034 5.042245 -0.477240 3.682131 -17.629518 -33.660916 21.296525 0.000000 0.000000 0.000000 -2.983349 -0.042830 17.237408 5.158977 -1.240956 -14.971660 -1.739069 1.816518 25.249379 -1.515474 2.237401 -20.218988 0.000000 0.000000 0.000000 -30.422001 -14.970999 8.379483 -40.152082 -31.431943 3.202746 2.032385 -22.655258 0.659507 0.000000 0.000000 0.000000 18.373410 22.802275 11.513378 47.769170 34.128161 6.778046 -9.681524 22.669274 -0.807165 0.000000 0.000000 0.000000 
-0.000950 0.941260 0.014036 -2.102070 -5.059332 11.511309 11.410707 -0.165822 -9.711472 -6.133365 0.665679 -3.040310 -0.049257 9.293405 36.425725 0.000000 0.000000 0.000000 -6.710483 1.024782 -13.257185 4.743406 -0.421846 2.416160 -16.065793 -31.914880 19.674161 0.000000 0.000000 0.000000 -3.647860 0.119502 13.121610 5.487806 -1.373663 -15.155197 -2.047616 1.957337 26.649362 -1.789609 2.328570 -20.739464 0.000000 0.000000 0.000000 -29.353017 -11.158744 6.044633 -43.318193 -26.975931 1.877155 -0.844153 -23.918256 1.345170 0.000000 0.000000 0.000000 18.834514 19.675940 9.607369 50.131693 30.256694 5.436100 -7.140178 25.533060 -0.390681 0.000000 0.000000 0.000000 
-0.001454 0.941896 0.020514 -1.559897 -4.844604 9.406583 10.789002 -0.194998 -6.672767 -6.179835 0.656544 -3.794515 -0.456052 8.954411 36.463181 0.000000 0.000000 0.000000 -6.825115 0.824226 -10.156427 3.780938 -0.327887 1.827364 -15.576558 -31.192757 19.409192 0.000000 0.000000 0.000000 -3.622326 0.091948 9.770735 5.542828 -1.413918 -15.167301 -2.270142 1.448554 27.424510 -1.202936 1.856933 -19.867218 0.000000 0.000000 0.000000 -28.465489 -8.174288 4.199868 -45.801151 -22.726017 0.415052 -3.148743 -24.866250 1.956539 0.000000 0.000000 0.000000 18.589159 16.849505 7.862923 52.398164 26.221791 3.920395 -3.608319 28.130337 0.382059 0.000000 0.000000 0.000000 
-0.001786 0.942902 0.026268 -1.291438 -4.735164 8.694862 10.461892 -0.203869 -4.576239 -6.177260 0.625184 -5.548701 -0.776034 8.740403 36.889791 0.000000 0.000000 0.000000 -6.758320 0.723566 -8.286149 3.171684 -0.286970 0.265672 -15.781571 -31.262748 20.299889 0.000000 0.000000 0.000000 -3.785844 0.113403 6.069893 5.628067 -1.375495 -16.159880 -2.112287 1.212847 29.040672 -0.505322 1.404455 -21.175077 0.000000 0.000000 0.000000 -27.239552 -5.036446 2.275587 -47.734636 -18.557839 -1.256648 -6.749027 -25.596770 2.890983 0.000000 0.000000 0.000000 17.807113 14.064978 6.259052 54.411664 21.933037 1.987893 -0.298247 30.843442 1.325933 0.000000 0.000000 0.000000 
-0.002088 0.943378 0.030307 -1.299033 -4.165641 7.459059 10.417314 -0.191945 -2.857323 -6.019436 0.601066 -5.938872 -1.178893 8.429799 36.814418 0.000000 0.000000 0.000000 -6.562518 0.612762 -6.469615 3.065603 -0.290850 -0.328007 -16.550204 -32.007606 21.440541 0.000000 0.000000 0.000000 -3.714028 0.102939 3.696737 5.740194 -1.342455 -17.069902 -2.127495 0.892934 29.782409 0.401510 0.865215 -22.416946 0.000000 0.000000 0.000000 -26.353975 -3.225655 1.153222 -49.109756 -15.574090 -2.460429 -8.115327 -25.795591 3.265843 0.000000 0.000000 0.000000 17.875511 12.358006 5.350464 55.957955 18.376531 0.349826 1.972081 31.304713 1.975736 0.000000 0.000000 0.000000 
-0.002213 0.943795 0.032488 -1.340538 -4.064500 6.573638 10.113600 -0.174667 -1.972215 -5.408794 0.563159 -5.566969 -1.259460 8.352061 36.676499 0.000000 0.000000 0.000000 -6.371714 0.533470 -5.085880 2.860212 -0.280801 -0.768102 -16.479144 -31.878222 21.473621 0.000000 0.000000 0.000000 -3.396901 0.088645 1.986118 5.276279 -1.178773 -17.567208 -1.588999 1.098797 29.738987 0.891605 0.647242 -23.177169 0.000000 0.000000 0.000000 -25.116642 -2.011767 0.321382 -50.394952 -13.219991 -3.342592 -9.734050 -26.011405 3.681486 0.000000 0.000000 0.000000 16.862103 11.193108 4.729156 58.027097 15.764550 -0.790627 3.198099 30.459342 2.247656 0.000000 0.000000 0.000000 
-0.002334 0.944170 0.033884 -1.312115 -3.771102 6.012555 10.040424 -0.166782 -1.528778 -5.280154 0.554657 -5.225636 -1.446355 8.213309 36.648725 0.000000 0.000000 0.000000 -6.283727 0.490453 -4.448878 2.725367 -0.268025 -0.551035 -16.604897 -31.998032 21.597221 0.000000 0.000000 0.000000 -3.098157 0.087187 0.581148 4.931771 -1.029871 -18.255593 -1.390582 1.435335 29.876113 1.147581 0.575276 -23.211521 0.000000 0.000000 0.000000 -24.067065 -1.327879 -0.218652 -51.525107 -12.362250 -3.659199 -10.588386 -25.511496 3.793950 0.000000 0.000000 0.000000 16.493615 9.758182 4.079296 59.458004 13.639849 -1.807142 3.452085 28.408766 2.155755 0.000000 0.000000 0.000000 
-0.002521 0.943890 0.035237 -1.184586 -3.933584 5.476410 9.572638 -0.143896 -0.673013 -4.735150 0.516177 -5.490247 -1.382013 8.235053 36.521826 0.000000 0.000000 0.000000 -6.387218 0.448987 -3.644740 2.650929 -0.265672 -0.834331 -16.458573 -31.846279 21.342950 0.000000 0.000000 0.000000 -2.850506 0.099873 -0.914973 4.540908 -0.899172 -18.655042 -1.142132 1.883072 29.783964 1.244184 0.589082 -23.388525 0.000000 0.000000 0.000000 -22.849192 -0.464111 -0.782553 -52.526296 -11.430534 -4.013684 -11.955050 -25.146623 4.044218 0.000000 0.000000 0.000000 15.995243 8.527504 3.493849 61.098494 11.841493 -2.677397 3.890501 26.738022 2.122613 0.000000 0.000000 0.000000 
-0.002739 0.944098 0.036703 -1.114966 -4.051440 4.800873 9.474795 -0.113605 0.428048 -4.713998 0.515330 -5.919398 -1.437455 8.193291 36.622504 0.000000 0.000000 0.000000 -6.496954 0.383926 -2.303095 2.712921 -0.285958 -1.778902 -16.267963 -31.589008 21.287509 0.000000 0.000000 0.000000 -2.747800 0.112521 -1.975799 4.211253 -0.811902 -18.681038 -0.877627 1.885566 29.777297 1.063498 0.653677 -22.792313 0.000000 0.000000 0.000000 -22.571032 0.236608 -1.155492 -53.022920 -11.020220 -4.199890 -12.663936 -24.925358 4.182960 0.000000 0.000000 0.000000 15.472860 8.006500 3.188341 61.795439 10.538497 -3.352462 4.557527 25.151223 2.097038 0.000000 0.000000 0.000000 
-0.002922 0.944101 0.038140 -1.049594 -4.024578 4.314430 9.476278 -0.094702 1.204688 -4.827981 0.522063 -6.199171 -1.529931 8.122514 36.663385 0.000000 0.000000 0.000000 -6.785963 0.338537 -1.161729 3.118760 -0.328865 -2.692841 -16.189779 -31.470059 21.278108 0.000000 0.000000 0.000000 -2.652085 0.131895 -3.132529 4.158105 -0.816524 -18.414599 -0.887053 1.810635 29.442382 0.848248 0.800668 -23.086430 0.000000 0.000000 0.000000 -22.589155 1.153549 -1.703937 -53.114622 -10.807904 -4.250179 -13.703131 -24.580895 4.359600 0.000000 0.000000 0.000000 15.203045 7.412218 2.858322 62.357634 9.531009 -3.853710 4.814344 24.039054 2.029128 0.000000 0.000000 0.000000 
-0.003045 0.944280 0.039193 -0.983764 -4.185320 3.980125 9.483559 -0.076464 1.733633 -4.993785 0.534879 -6.311855 -1.537214 8.122774 36.788462 0.000000 0.000000 0.000000 -6.969933 0.323316 -0.653219 3.293032 -0.342145 -2.886031 -16.046157 -31.298430 21.176883 0.000000 0.000000 0.000000 -2.547145 0.144800 -3.782345 4.223922 -0.834633 -18.508731 -0.921807 1.846465 29.275068 0.761941 0.835021 -22.901111 0.000000 0.000000 0.000000 -22.865716 1.540029 -1.945122 -53.099920 -10.296943 -4.455078 -13.902190 -24.605488 4.413763 0.000000 0.000000 0.000000 15.233296 7.076679 2.666139 62.212255 8.796287 -4.226891 4.951700 23.053311 1.944513 0.000000 0.000000 0.000000 
-0.003033 0.944769 0.039758 -0.904502 -4.190047 3.401233 9.603927 -0.057551 2.415361 -5.357807 0.559341 -6.343337 -1.670560 8.039146 36.977057 0.000000 0.000000 0.000000 -7.194623 0.296105 0.116781 3.531977 -0.360562 -3.077672 -15.961669 -31.173285 21.201712 0.000000 0.000000 0.000000 -2.398763 0.156675 -4.405437 4.079496 -0.807054 -18.356660 -0.959881 1.750615 29.115798 0.590084 0.954672 -23.376774 0.000000 0.000000 0.000000 -22.865759 2.077130 -2.245208 -52.970292 -10.151948 -4.495022 -14.399982 -23.960033 4.398180 0.000000 0.000000 0.000000 15.318499 6.859717 2.524470 62.168788 8.270842 -4.488092 4.693021 22.159041 1.799017 0.000000 0.000000 0.000000 
-0.002984 0.945043 0.039906 -0.846010 -4.196781 3.282555 9.633982 -0.053160 2.609084 -5.530889 0.569820 -6.447734 -1.728725 8.009098 37.104767 0.000000 0.000000 0.000000 -7.260833 0.294532 0.203468 3.528001 -0.359658 -2.995301 -15.946150 -31.144983 21.229130 0.000000 0.000000 0.000000 -2.387083 0.163501 -4.704560 4.267321 -0.855121 -18.457051 -0.990627 1.588368 29.088847 0.570489 0.949691 -23.578683 0.000000 0.000000 0.000000 -23.271929 2.441373 -2.456351 -52.856917 -10.035667 -4.546554 -14.168142 -23.455506 4.253024 0.000000 0.000000 0.000000 15.321860 6.619437 2.365547 61.759819 8.326343 -4.450050 4.522414 21.684427 1.714578 0.000000 0.000000 0.000000 
-0.002929 0.945353 0.039991 -0.943030 -4.661748 3.238755 9.710005 -0.038428 2.774818 -5.580449 0.579979 -6.455614 -1.552631 8.146107 37.253302 0.000000 0.000000 0.000000 -7.226598 0.305030 0.062147 3.558538 -0.356524 -2.800024 -15.653592 -30.807941 21.042968 0.000000 0.000000 0.000000 -2.023161 0.179399 -4.927076 4.156991 -0.826372 -18.589110 -0.970643 1.613642 28.953309 0.711944 0.824350 -23.622042 0.000000 0.000000 0.000000 -23.568048 2.691957 -2.556611 -52.814968 -10.082473 -4.529295 -13.750870 -22.611382 4.007774 0.000000 0.000000 0.000000 15.280121 6.468942 2.224915 61.436605 8.446717 -4.371324 4.674099 21.521359 1.713652 0.000000 0.000000 0.000000 
